<svg width="1135" height="39" viewBox="0 0 1135 39" fill="none" xmlns="http://www.w3.org/2000/svg">
<g opacity="0.8">
<g clip-path="url(#clip0_299_3797)">
<path d="M550.251 12.5149H554.058V27.8803H550.251V12.5149ZM555.568 22.0787C555.568 18.2785 557.903 16.0111 561.507 16.0111C565.111 16.0111 567.446 18.2785 567.446 22.0787C567.446 25.8789 565.161 28.159 561.507 28.159C557.852 28.159 555.568 25.9422 555.568 22.0787ZM563.626 22.0787C563.626 19.9886 562.801 18.7599 561.507 18.7599C560.212 18.7599 559.4 20.0266 559.4 22.0787C559.4 24.1308 560.2 25.3722 561.507 25.3722C562.814 25.3722 563.626 24.2068 563.626 22.0914V22.0787ZM568.879 28.6277H572.534C572.708 29.0134 573.002 29.3328 573.373 29.5382C573.743 29.7436 574.17 29.8241 574.59 29.7677C576.037 29.7677 576.798 28.9824 576.798 27.8423V25.7142H576.722C576.418 26.3665 575.926 26.913 575.309 27.2833C574.691 27.6536 573.977 27.8307 573.257 27.7917C570.478 27.7917 568.638 25.6762 568.638 22.0407C568.638 18.4052 570.39 16.1124 573.308 16.1124C574.05 16.0834 574.783 16.2814 575.409 16.6798C576.035 17.0783 576.524 17.6582 576.811 18.3418V16.2264H580.618V27.7536C580.618 30.5278 578.168 32.2505 574.552 32.2505C571.189 32.2505 569.095 30.7431 568.879 28.6404V28.6277ZM576.811 22.066C576.811 20.2166 575.96 19.0512 574.615 19.0512C573.27 19.0512 572.445 20.2039 572.445 22.066C572.445 23.9281 573.257 24.9795 574.615 24.9795C575.973 24.9795 576.811 23.9535 576.811 22.0787V22.066ZM582.051 22.066C582.051 18.2658 584.386 15.9984 587.99 15.9984C591.594 15.9984 593.942 18.2658 593.942 22.066C593.942 25.8662 591.658 28.1463 587.99 28.1463C584.323 28.1463 582.051 25.9422 582.051 22.0787V22.066ZM590.109 22.066C590.109 19.9759 589.285 18.7472 587.99 18.7472C586.696 18.7472 585.947 20.0266 585.947 22.0914C585.947 24.1561 586.747 25.3849 588.041 25.3849C589.335 25.3849 590.109 24.2068 590.109 22.0914V22.066ZM595.388 13.4649C595.378 13.0813 595.483 12.7033 595.688 12.3789C595.894 12.0545 596.191 11.7983 596.543 11.6428C596.894 11.4873 597.284 11.4394 597.663 11.5054C598.042 11.5713 598.392 11.748 598.67 12.0131C598.948 12.2782 599.141 12.6198 599.225 12.9945C599.308 13.3691 599.278 13.7601 599.139 14.1178C598.999 14.4754 598.756 14.7837 598.441 15.0035C598.126 15.2233 597.752 15.3447 597.368 15.3524C597.113 15.3698 596.857 15.3345 596.617 15.2486C596.376 15.1628 596.156 15.0281 595.97 14.8533C595.785 14.6784 595.637 14.4671 595.537 14.2325C595.437 13.9979 595.386 13.7452 595.388 13.4903V13.4649ZM595.388 16.2517H599.195V27.8803H595.388V16.2517ZM613.015 22.066C613.015 25.8662 611.327 28.0323 608.434 28.0323C607.692 28.0799 606.953 27.8988 606.318 27.5137C605.682 27.1286 605.18 26.5579 604.88 25.8789H604.804V31.6045H600.997V16.2264H604.804V18.3038H604.88C605.166 17.6136 605.658 17.0281 606.29 16.6269C606.921 16.2258 607.661 16.0284 608.408 16.0617C611.327 16.1124 613.065 18.2912 613.065 22.0914L613.015 22.066ZM609.208 22.066C609.208 20.2166 608.357 19.0386 607.025 19.0386C605.692 19.0386 604.842 20.2293 604.83 22.066C604.817 23.9028 605.692 25.0809 607.025 25.0809C608.357 25.0809 609.208 23.9281 609.208 22.0914V22.066ZM619.55 15.9857C622.709 15.9857 624.626 17.4805 624.714 19.8746H621.25C621.25 19.0512 620.565 18.5319 619.512 18.5319C618.458 18.5319 617.989 18.9372 617.989 19.5326C617.989 20.1279 618.408 20.3179 619.258 20.4953L621.694 20.9893C624.017 21.4833 625.006 22.4207 625.006 24.1815C625.006 26.5883 622.811 28.1337 619.575 28.1337C616.339 28.1337 614.22 26.5883 614.055 24.2195H617.722C617.837 25.0809 618.522 25.5875 619.639 25.5875C620.755 25.5875 621.263 25.2202 621.263 24.6122C621.263 24.0041 620.908 23.8775 619.994 23.6874L617.799 23.2188C615.527 22.7501 614.334 21.5467 614.334 19.7733C614.36 17.4931 616.403 16.0111 619.55 16.0111V15.9857ZM637.709 27.855H634.041V25.6889H633.965C633.764 26.4161 633.319 27.0527 632.705 27.4928C632.091 27.9329 631.345 28.1501 630.59 28.1083C630.011 28.1412 629.433 28.0497 628.893 27.8401C628.353 27.6304 627.864 27.3076 627.46 26.8933C627.056 26.479 626.746 25.9829 626.55 25.4386C626.354 24.8943 626.278 24.3144 626.326 23.7381V16.2264H630.133V22.8641C630.133 24.2448 630.844 24.9795 632.024 24.9795C632.301 24.9801 632.574 24.9216 632.826 24.8079C633.079 24.6943 633.304 24.5282 633.486 24.3206C633.669 24.1131 633.805 23.869 633.885 23.6047C633.966 23.3404 633.989 23.0619 633.953 22.7881V16.2264H637.76L637.709 27.855ZM639.549 16.2264H643.229V18.4685H643.305C643.507 17.7509 643.942 17.1204 644.541 16.6757C645.14 16.231 645.87 15.9973 646.617 16.0111C647.377 15.9504 648.131 16.1773 648.731 16.6467C649.33 17.1161 649.731 17.7937 649.853 18.5445H649.929C650.159 17.7857 650.636 17.1249 651.284 16.6662C651.932 16.2075 652.714 15.977 653.508 16.0111C654.025 15.9937 654.541 16.0853 655.021 16.2798C655.501 16.4743 655.934 16.7675 656.293 17.1402C656.652 17.513 656.929 17.957 657.105 18.4433C657.281 18.9297 657.352 19.4475 657.314 19.9633V27.8803H653.508V20.9766C653.508 19.7099 652.936 19.1272 651.871 19.1272C651.633 19.1252 651.397 19.1741 651.18 19.2706C650.963 19.3672 650.769 19.509 650.612 19.6867C650.454 19.8644 650.337 20.0738 650.267 20.3007C650.197 20.5275 650.177 20.7667 650.208 21.002V27.8803H646.592V20.926C646.592 19.7606 646.021 19.1272 644.98 19.1272C644.74 19.1273 644.502 19.1783 644.283 19.2767C644.064 19.3752 643.868 19.519 643.708 19.6985C643.549 19.8781 643.429 20.0893 643.357 20.3184C643.286 20.5474 643.264 20.7891 643.292 21.0273V27.8803H639.485L639.549 16.2264Z" fill="white"/>
<path d="M539.604 13.2119C538.959 11.7379 538.104 10.3642 537.066 9.13308C535.533 7.25875 533.619 5.72987 531.451 4.64709C529.283 3.56431 526.909 2.95216 524.487 2.85094C522.065 2.74971 519.648 3.16171 517.397 4.05981C515.146 4.95792 513.111 6.32176 511.426 8.06159C509.74 9.80141 508.444 11.8778 507.62 14.154C506.797 16.4302 506.466 18.8547 506.649 21.2679C506.831 23.681 507.524 26.0282 508.681 28.1548C509.838 30.2815 511.434 32.1394 513.362 33.6063C514.599 34.5663 515.966 35.3468 517.423 35.9244C519.464 36.7597 521.65 37.1899 523.856 37.1911C528.411 37.1811 532.776 35.3687 535.995 32.1512C539.213 28.9338 541.022 24.5738 541.026 20.0269C541.029 17.6816 540.545 15.3611 539.604 13.2119ZM523.844 6.3336C525.825 6.33339 527.783 6.76573 529.579 7.60033C529.141 7.78929 528.681 7.92126 528.209 7.99302C526.656 8.21735 525.218 8.93683 524.109 10.0441C523 11.1513 522.279 12.5869 522.054 14.1367C521.956 15.0058 521.56 15.8143 520.933 16.4259C520.307 17.0374 519.488 17.4145 518.615 17.4935C517.063 17.7178 515.625 18.4373 514.516 19.5445C513.406 20.6518 512.686 22.0874 512.461 23.6371C512.385 24.4635 512.032 25.2401 511.458 25.8412C510.469 23.7553 510.025 21.4535 510.167 19.15C510.309 16.8466 511.032 14.6164 512.269 12.6669C513.507 10.7175 515.218 9.1122 517.244 8.00043C519.27 6.88866 521.544 6.30654 523.856 6.30827L523.844 6.3336ZM513.349 28.8941C513.501 28.7547 513.654 28.628 513.806 28.476C514.935 27.3834 515.66 25.9411 515.862 24.3845C515.944 23.5095 516.335 22.6922 516.966 22.079C517.573 21.4484 518.389 21.061 519.263 20.9897C520.815 20.7653 522.253 20.0458 523.362 18.9386C524.472 17.8314 525.192 16.3957 525.417 14.846C525.472 13.9308 525.865 13.0686 526.521 12.4266C527.143 11.8082 527.968 11.4349 528.843 11.3752C530.27 11.1793 531.6 10.5464 532.65 9.56376C533.846 10.5544 534.86 11.7462 535.645 13.0853C535.597 13.1503 535.542 13.2098 535.48 13.2626C534.874 13.8988 534.059 14.2947 533.183 14.3773C531.629 14.5977 530.189 15.316 529.079 16.4239C527.969 17.5319 527.249 18.9697 527.029 20.521C526.939 21.393 526.551 22.2074 525.928 22.8261C525.306 23.4448 524.489 23.8298 523.615 23.9158C522.058 24.1384 520.615 24.8565 519.499 25.9633C518.383 27.0701 517.655 28.5066 517.423 30.0594C517.354 30.6785 517.141 31.273 516.801 31.7949C515.499 31.0232 514.333 30.0432 513.349 28.8941ZM523.844 33.7836C522.556 33.785 521.275 33.6059 520.037 33.2516C520.46 32.4637 520.735 31.605 520.849 30.7181C520.938 29.848 521.325 29.0352 521.944 28.4167C522.564 27.7983 523.378 27.4121 524.25 27.3233C525.804 27.1015 527.246 26.3831 528.357 25.2757C529.469 24.1682 530.192 22.7312 530.417 21.1797C530.506 20.3096 530.893 19.4967 531.512 18.8783C532.132 18.2598 532.946 17.8736 533.818 17.7848C534.988 17.6329 536.103 17.1981 537.066 16.5181C537.601 18.5422 537.665 20.6618 537.252 22.7141C536.839 24.7665 535.96 26.6971 534.683 28.3579C533.407 30.0187 531.766 31.3656 529.887 32.2951C528.008 33.2246 525.941 33.7122 523.844 33.7203V33.7836Z" fill="white"/>
</g>
<g clip-path="url(#clip1_299_3797)">
<path d="M789.081 28.696C788.331 28.7365 787.588 28.5243 786.973 28.0938C786.717 27.9046 786.51 27.6561 786.371 27.3697C786.233 27.0833 786.167 26.7677 786.178 26.4502V14.8195C786.172 14.7702 786.177 14.7202 786.194 14.6733C786.21 14.6264 786.237 14.5838 786.272 14.5487C786.307 14.5136 786.35 14.487 786.397 14.4708C786.445 14.4547 786.495 14.4495 786.544 14.4556H788.665C788.905 14.4556 789.018 14.5811 789.018 14.8195V25.5468C789.018 26.0236 789.233 26.262 789.675 26.262C789.862 26.2697 790.049 26.2485 790.23 26.1993C790.482 26.1993 790.621 26.2745 790.634 26.5004L790.823 28.0687C790.832 28.1144 790.831 28.1616 790.821 28.2069C790.81 28.2523 790.789 28.2948 790.761 28.3317C790.732 28.3685 790.696 28.3989 790.654 28.4206C790.613 28.4423 790.567 28.455 790.52 28.4577C790.056 28.6102 789.57 28.6906 789.081 28.696Z" fill="white"/>
<path d="M801.01 27.3535C799.944 28.2286 798.605 28.7073 797.223 28.7073C795.841 28.7073 794.502 28.2286 793.437 27.3535C792.5 26.4137 791.975 25.1444 791.975 23.8216C791.975 22.4988 792.5 21.2295 793.437 20.2897C794.504 19.4192 795.842 18.9434 797.223 18.9434C798.604 18.9434 799.942 19.4192 801.01 20.2897C801.925 21.2382 802.435 22.5013 802.435 23.8154C802.435 25.1294 801.925 26.3925 801.01 27.341V27.3535ZM795.431 25.6973C795.925 26.1426 796.569 26.3892 797.236 26.3892C797.903 26.3892 798.546 26.1426 799.041 25.6973C799.488 25.1859 799.735 24.5308 799.735 23.853C799.735 23.1751 799.488 22.5201 799.041 22.0086C798.546 21.5634 797.903 21.3168 797.236 21.3168C796.569 21.3168 795.925 21.5634 795.431 22.0086C794.983 22.5201 794.737 23.1751 794.737 23.853C794.737 24.5308 794.983 25.1859 795.431 25.6973Z" fill="white"/>
<path d="M814.111 19.2604C814.351 19.2604 814.465 19.3859 814.465 19.6243V28.6202C814.487 29.2274 814.372 29.8318 814.13 30.3896C813.888 30.9474 813.523 31.4444 813.064 31.8447C812.043 32.7098 810.73 33.1581 809.391 33.0994C808.18 33.1417 806.986 32.8132 805.97 32.1584C805.536 31.8751 805.165 31.5062 804.881 31.0745C804.596 30.6429 804.404 30.1577 804.317 29.6491C804.317 29.3981 804.317 29.2852 804.657 29.2852H806.778C806.868 29.2883 806.955 29.3171 807.029 29.3683C807.103 29.4195 807.16 29.4909 807.194 29.5738C807.332 29.9549 807.606 30.2721 807.964 30.4646C808.401 30.6885 808.887 30.8006 809.378 30.7908C809.674 30.807 809.971 30.7642 810.25 30.6651C810.53 30.566 810.787 30.4126 811.006 30.2137C811.206 30.0056 811.362 29.7594 811.464 29.4898C811.566 29.2203 811.612 28.933 811.599 28.6453V27.8549C810.84 28.41 809.916 28.697 808.974 28.6704C808.315 28.6943 807.657 28.5854 807.041 28.3504C806.425 28.1154 805.863 27.7591 805.389 27.3028C804.479 26.367 803.971 25.1164 803.971 23.8149C803.971 22.5133 804.479 21.2627 805.389 20.3269C805.866 19.8747 806.428 19.5218 807.044 19.2891C807.66 19.0564 808.316 18.9485 808.974 18.9719C809.943 18.9464 810.892 19.252 811.662 19.8376V19.6368C811.657 19.5888 811.662 19.54 811.677 19.4941C811.693 19.4482 811.718 19.4063 811.752 19.3715C811.786 19.3366 811.827 19.3097 811.873 19.2927C811.919 19.2756 811.967 19.2689 812.016 19.273L814.111 19.2604ZM809.214 26.4371C809.539 26.4471 809.862 26.386 810.161 26.2581C810.46 26.1302 810.727 25.9386 810.943 25.6969C811.363 25.1582 811.59 24.4962 811.59 23.8149C811.59 23.1336 811.363 22.4716 810.943 21.9329C810.728 21.6944 810.462 21.5057 810.166 21.38C809.869 21.2543 809.549 21.1946 809.226 21.2052C808.898 21.1949 808.57 21.2558 808.267 21.3836C807.964 21.5114 807.693 21.7031 807.472 21.9454C807.007 22.4607 806.763 23.1358 806.79 23.8274C806.768 24.5122 807.007 25.1802 807.459 25.6969C807.681 25.9385 807.952 26.1298 808.255 26.2576C808.558 26.3853 808.885 26.4466 809.214 26.4371Z" fill="white"/>
<path d="M825.357 27.3528C824.289 28.2233 822.951 28.6991 821.57 28.6991C820.189 28.6991 818.851 28.2233 817.783 27.3528C816.868 26.4022 816.356 25.137 816.356 23.8209C816.356 22.5048 816.868 21.2395 817.783 20.289C818.852 19.4207 820.19 18.9463 821.57 18.9463C822.95 18.9463 824.288 19.4207 825.357 20.289C826.271 21.2374 826.782 22.5006 826.782 23.8146C826.782 25.1286 826.271 26.3918 825.357 27.3402V27.3528ZM819.765 25.6966C820.007 25.9254 820.292 26.1042 820.604 26.2227C820.916 26.3411 821.249 26.3969 821.583 26.3867C821.914 26.3952 822.244 26.3387 822.554 26.2203C822.864 26.1018 823.147 25.9239 823.388 25.6966C823.828 25.1817 824.069 24.528 824.069 23.8522C824.069 23.1765 823.828 22.5228 823.388 22.0079C823.147 21.7806 822.864 21.6027 822.554 21.4842C822.244 21.3658 821.914 21.3093 821.583 21.3178C821.249 21.3076 820.916 21.3634 820.604 21.4818C820.292 21.6003 820.007 21.7791 819.765 22.0079C819.325 22.5228 819.083 23.1765 819.083 23.8522C819.083 24.528 819.325 25.1817 819.765 25.6966Z" fill="white"/>
<path d="M831.34 17.128C831.006 17.4183 830.578 17.5783 830.135 17.5783C829.691 17.5783 829.263 17.4183 828.929 17.128C828.778 16.9861 828.657 16.8149 828.575 16.6251C828.493 16.4352 828.45 16.2306 828.45 16.0239C828.45 15.8171 828.493 15.6125 828.575 15.4227C828.657 15.2328 828.778 15.0617 828.929 14.9198C829.266 14.6367 829.693 14.4814 830.135 14.4814C830.576 14.4814 831.003 14.6367 831.34 14.9198C831.491 15.0617 831.612 15.2328 831.694 15.4227C831.776 15.6125 831.819 15.8171 831.819 16.0239C831.819 16.2306 831.776 16.4352 831.694 16.6251C831.612 16.8149 831.491 16.9861 831.34 17.128ZM831.605 28.696C830.855 28.7326 830.113 28.5208 829.497 28.0937C829.244 27.9017 829.041 27.6523 828.905 27.3664C828.769 27.0805 828.704 26.7663 828.715 26.4501V19.6248C828.708 19.5755 828.714 19.5255 828.73 19.4786C828.746 19.4317 828.773 19.3891 828.808 19.354C828.844 19.3189 828.886 19.2923 828.934 19.2761C828.981 19.26 829.031 19.2548 829.081 19.2609H831.201C831.441 19.2609 831.555 19.3864 831.555 19.6248V25.5468C831.555 26.0235 831.769 26.2619 832.198 26.2619C832.39 26.2688 832.581 26.2476 832.766 26.1992C833.019 26.1992 833.158 26.2745 833.17 26.5003L833.359 28.0687C833.369 28.1144 833.368 28.1615 833.357 28.2069C833.346 28.2522 833.326 28.2948 833.297 28.3316C833.268 28.3685 833.232 28.3988 833.191 28.4205C833.149 28.4423 833.103 28.4549 833.057 28.4576C832.588 28.611 832.098 28.6914 831.605 28.696Z" fill="white"/>
<path d="M841.16 18.9592C841.823 18.9332 842.483 19.0398 843.103 19.2725C843.724 19.5053 844.29 19.8596 844.77 20.3143C845.663 21.2665 846.159 22.5196 846.159 23.8211C846.159 25.1225 845.663 26.3757 844.77 27.3279C844.293 27.7866 843.727 28.1443 843.106 28.3794C842.486 28.6144 841.824 28.722 841.16 28.6954C840.215 28.7163 839.289 28.43 838.522 27.8799V32.4092C838.522 32.6476 838.396 32.7606 838.156 32.7606H836.036C835.987 32.7695 835.937 32.7667 835.89 32.7522C835.843 32.7377 835.801 32.7121 835.766 32.6775C835.731 32.6429 835.705 32.6004 835.691 32.5536C835.676 32.5069 835.673 32.4573 835.682 32.4092V22.121C835.697 22.0204 835.688 21.9177 835.656 21.8211C835.624 21.7246 835.569 21.6368 835.497 21.5649C835.425 21.493 835.336 21.4389 835.239 21.4069C835.142 21.3749 835.039 21.366 834.938 21.3807H834.521C834.243 21.3807 834.105 21.2804 834.105 21.0796V19.5991C834.098 19.5075 834.123 19.4164 834.176 19.3411C834.229 19.2657 834.306 19.2107 834.395 19.1851C834.831 19.0273 835.294 18.9508 835.758 18.9592C836.221 18.9185 836.686 19.0161 837.093 19.2396C837.5 19.4632 837.831 19.8024 838.043 20.2139C838.449 19.8051 838.935 19.483 839.471 19.2673C840.007 19.0515 840.582 18.9467 841.16 18.9592ZM839.191 25.6968C839.416 25.9306 839.687 26.1167 839.986 26.2438C840.285 26.3709 840.607 26.4364 840.933 26.4364C841.259 26.4364 841.581 26.3709 841.88 26.2438C842.179 26.1167 842.45 25.9306 842.675 25.6968C843.149 25.1712 843.398 24.4825 843.369 23.7772C843.402 23.0712 843.152 22.381 842.675 21.8575C842.45 21.6237 842.179 21.4376 841.88 21.3105C841.581 21.1834 841.259 21.1179 840.933 21.1179C840.607 21.1179 840.285 21.1834 839.986 21.3105C839.687 21.4376 839.416 21.6237 839.191 21.8575C838.732 22.3902 838.493 23.0762 838.522 23.7772C838.497 24.4776 838.735 25.1622 839.191 25.6968Z" fill="white"/>
<path d="M852.115 28.6952C850.982 28.7415 849.859 28.4721 848.871 27.9173C848.475 27.6802 848.138 27.3574 847.884 26.9729C847.631 26.5885 847.468 26.1523 847.407 25.6966C847.407 25.4456 847.496 25.3202 847.773 25.3202H849.629C849.717 25.3236 849.803 25.3512 849.876 25.3999C849.95 25.4486 850.008 25.5165 850.045 25.5962C850.31 26.2737 851.004 26.6125 852.115 26.6125C852.503 26.6301 852.888 26.5525 853.239 26.3866C853.359 26.3324 853.463 26.2466 853.539 26.1383C853.614 26.03 853.659 25.9034 853.668 25.7719C853.668 25.4456 853.466 25.2198 853.062 25.0692C852.583 24.9107 852.087 24.8055 851.585 24.7556C850.99 24.6886 850.4 24.5838 849.818 24.4419C849.252 24.3146 848.738 24.0218 848.341 23.6013C848.108 23.3154 847.936 22.9849 847.836 22.6301C847.736 22.2754 847.711 21.9041 847.762 21.5393C847.813 21.1745 847.939 20.824 848.132 20.5096C848.325 20.1952 848.581 19.9237 848.884 19.7118C849.794 19.1357 850.861 18.8551 851.938 18.9088C852.982 18.8738 854.014 19.1302 854.917 19.6491C855.281 19.8541 855.595 20.1374 855.835 20.4781C856.075 20.8189 856.236 21.2086 856.306 21.6189C856.306 21.8698 856.192 21.9953 855.965 21.9953H854.097C854.018 21.9999 853.94 21.9809 853.872 21.9406C853.805 21.9003 853.751 21.8406 853.718 21.7695C853.593 21.4723 853.358 21.2342 853.062 21.1045C852.727 20.9305 852.354 20.8442 851.976 20.8536C851.606 20.8336 851.237 20.9069 850.903 21.0669C850.786 21.112 850.685 21.191 850.613 21.2939C850.541 21.3968 850.501 21.5187 850.5 21.644C850.508 21.8156 850.571 21.9801 850.68 22.1133C850.789 22.2465 850.938 22.3415 851.105 22.3843C851.59 22.5658 852.094 22.6921 852.607 22.7607C853.198 22.8379 853.783 22.9468 854.362 23.0869C854.928 23.2141 855.442 23.5069 855.839 23.9275C856.051 24.1592 856.215 24.4304 856.321 24.7254C856.427 25.0204 856.473 25.3335 856.457 25.6464C856.468 26.0801 856.366 26.5092 856.16 26.8918C855.954 27.2745 855.652 27.5975 855.283 27.8295C854.34 28.4313 853.235 28.7333 852.115 28.6952Z" fill="white"/>
<path d="M869.799 28.0685C869.806 28.113 869.804 28.1586 869.794 28.2024C869.783 28.2462 869.763 28.2874 869.736 28.3237C869.709 28.3599 869.675 28.3904 869.636 28.4134C869.597 28.4363 869.554 28.4513 869.509 28.4574C869.048 28.607 868.567 28.6873 868.083 28.6958C867.603 28.7452 867.118 28.6707 866.676 28.4794C866.234 28.2882 865.849 27.9868 865.558 27.6043C864.667 28.3662 863.514 28.7572 862.34 28.6958C861.794 28.7208 861.25 28.6321 860.741 28.4355C860.233 28.2388 859.771 27.9386 859.386 27.5541C859.004 27.1511 858.707 26.6757 858.514 26.1561C858.321 25.6365 858.236 25.0835 858.263 24.5303V19.6246C858.263 19.3862 858.376 19.2607 858.616 19.2607H860.737C860.976 19.2607 861.09 19.3862 861.09 19.6246V24.1539C861.067 24.7182 861.261 25.2701 861.633 25.6972C861.818 25.8928 862.044 26.0467 862.294 26.1484C862.545 26.2501 862.814 26.2973 863.084 26.2869C863.361 26.2989 863.637 26.2563 863.897 26.1616C864.157 26.0668 864.396 25.9218 864.599 25.7348C864.791 25.5378 864.941 25.3036 865.039 25.0468C865.136 24.79 865.18 24.516 865.167 24.2418V19.6246C865.167 19.3862 865.28 19.2607 865.52 19.2607H867.666C867.906 19.2607 868.019 19.3862 868.019 19.6246V25.5341C868.019 26.0234 868.234 26.2618 868.651 26.2618C868.846 26.2693 869.042 26.2482 869.231 26.199C869.279 26.1857 869.329 26.1834 869.378 26.1921C869.427 26.2008 869.473 26.2203 869.513 26.2493C869.553 26.2783 869.586 26.3159 869.609 26.3594C869.633 26.4028 869.646 26.4509 869.648 26.5002L869.799 28.0685Z" fill="white"/>
<path d="M889.855 28.0686C889.866 28.1135 889.867 28.1604 889.858 28.2058C889.849 28.2512 889.83 28.294 889.802 28.3312C889.774 28.3684 889.739 28.399 889.698 28.4208C889.657 28.4427 889.611 28.4552 889.565 28.4576C889.096 28.6092 888.606 28.6896 888.113 28.6959C887.363 28.7344 886.621 28.5225 886.005 28.0937C885.739 27.91 885.523 27.6639 885.375 27.3772C885.228 27.0905 885.154 26.7721 885.16 26.4501V23.5016C885.186 22.939 884.997 22.3874 884.629 21.9584C884.452 21.7623 884.234 21.6077 883.989 21.5057C883.745 21.4037 883.481 21.357 883.216 21.3687C882.977 21.3597 882.739 21.4048 882.521 21.5004C882.302 21.596 882.108 21.7398 881.954 21.9208C881.62 22.3412 881.45 22.8666 881.474 23.4013V28.031C881.474 28.2694 881.36 28.3948 881.121 28.3948H878.987C878.938 28.4009 878.888 28.3957 878.84 28.3796C878.793 28.3635 878.75 28.3368 878.715 28.3018C878.68 28.2667 878.653 28.224 878.637 28.1771C878.62 28.1302 878.615 28.0802 878.621 28.031V23.5016C878.649 22.9452 878.474 22.3974 878.129 21.9584C877.975 21.774 877.782 21.6255 877.564 21.5236C877.346 21.4217 877.108 21.3688 876.867 21.3687C876.609 21.3584 876.353 21.4022 876.113 21.4973C875.874 21.5925 875.658 21.7368 875.479 21.9208C875.118 22.3278 874.932 22.8594 874.961 23.4013V28.031C874.967 28.0802 874.962 28.1302 874.946 28.1771C874.929 28.224 874.903 28.2667 874.867 28.3018C874.832 28.3368 874.789 28.3635 874.742 28.3796C874.695 28.3957 874.645 28.4009 874.595 28.3948H872.538C872.298 28.3948 872.184 28.2694 872.184 28.031V22.1215C872.199 22.0209 872.19 21.9182 872.158 21.8216C872.126 21.7251 872.071 21.6373 871.999 21.5654C871.927 21.4935 871.838 21.4394 871.741 21.4074C871.644 21.3754 871.541 21.3665 871.44 21.3813H871.023C870.745 21.3813 870.606 21.2809 870.606 21.0801V19.5996C870.6 19.508 870.625 19.4169 870.678 19.3416C870.731 19.2663 870.808 19.2112 870.897 19.1856C871.333 19.0278 871.795 18.9513 872.26 18.9597C872.706 18.922 873.153 19.0103 873.551 19.2146C873.948 19.4188 874.28 19.7306 874.507 20.114C874.932 19.7128 875.437 19.4033 875.989 19.2047C876.54 19.0061 877.127 18.9227 877.713 18.9597C878.281 18.9322 878.849 19.0382 879.368 19.2693C879.888 19.5003 880.346 19.8499 880.704 20.2897C881.122 19.8384 881.635 19.485 882.207 19.255C882.779 19.025 883.395 18.9241 884.011 18.9597C884.562 18.9341 885.112 19.0224 885.627 19.2189C886.142 19.4154 886.61 19.7159 887.002 20.1015C887.386 20.5036 887.683 20.9789 887.876 21.4987C888.069 22.0185 888.154 22.5719 888.126 23.1252V25.5467C888.126 26.0235 888.34 26.2619 888.744 26.2619C888.94 26.271 889.136 26.2498 889.325 26.1992C889.586 26.1992 889.724 26.2995 889.741 26.5003L889.855 28.0686Z" fill="white"/>
<path d="M741.851 17.6299C742.782 13.9094 744.938 10.6056 747.977 8.24443C751.016 5.88328 754.762 4.60059 758.619 4.60059C762.476 4.60059 766.222 5.88328 769.26 8.24443C772.299 10.6056 774.456 13.9094 775.387 17.6299H773.872C771.317 17.5925 768.814 18.3516 766.716 19.8005C766.594 19.8877 766.468 19.9673 766.337 20.0389H766.16C766.029 19.9673 765.903 19.8877 765.782 19.8005C763.664 18.3851 761.17 17.6292 758.619 17.6292C756.067 17.6292 753.573 18.3851 751.456 19.8005C751.335 19.8877 751.208 19.9673 751.077 20.0389H750.9C750.769 19.9673 750.643 19.8877 750.522 19.8005C748.423 18.3516 745.92 17.5925 743.365 17.6299H741.851ZM771.146 25.4967C771.923 24.8948 772.887 24.5799 773.872 24.6059H775.904V20.5784H773.872C772.137 20.5575 770.441 21.0944 769.038 22.1091C768.248 22.6879 767.293 23.0001 766.312 23.0001C765.331 23.0001 764.375 22.6879 763.585 22.1091C762.146 21.1134 760.435 20.5796 758.682 20.5796C756.929 20.5796 755.217 21.1134 753.778 22.1091C752.988 22.6879 752.033 23.0001 751.052 23.0001C750.071 23.0001 749.115 22.6879 748.326 22.1091C746.905 21.0814 745.185 20.5439 743.428 20.5784H741.333V24.6059H743.365C744.35 24.5799 745.314 24.8948 746.091 25.4967C747.528 26.4931 749.237 27.0273 750.989 27.0273C752.74 27.0273 754.45 26.4931 755.886 25.4967C756.665 24.8966 757.628 24.582 758.612 24.6059C759.598 24.5778 760.562 24.8929 761.339 25.4967C762.778 26.4924 764.489 27.0262 766.242 27.0262C767.996 27.0262 769.707 26.4924 771.146 25.4967ZM771.146 32.6985C771.923 32.0966 772.887 31.7817 773.872 31.8077H775.904V27.7802H773.872C772.137 27.7593 770.441 28.2962 769.038 29.3109C768.248 29.8897 767.293 30.2019 766.312 30.2019C765.331 30.2019 764.375 29.8897 763.585 29.3109C762.146 28.3151 760.435 27.7814 758.682 27.7814C756.929 27.7814 755.217 28.3151 753.778 29.3109C752.988 29.8897 752.033 30.2019 751.052 30.2019C750.071 30.2019 749.115 29.8897 748.326 29.3109C746.905 28.2832 745.185 27.7457 743.428 27.7802H741.333V31.8077H743.365C744.35 31.7817 745.314 32.0966 746.091 32.6985C747.528 33.6949 749.237 34.2291 750.989 34.2291C752.74 34.2291 754.45 33.6949 755.886 32.6985C756.665 32.0984 757.628 31.7838 758.612 31.8077C759.598 31.7796 760.562 32.0947 761.339 32.6985C762.778 33.6942 764.489 34.228 766.242 34.228C767.996 34.228 769.707 33.6942 771.146 32.6985Z" fill="white"/>
</g>
<g clip-path="url(#clip2_299_3797)">
<path d="M1019.46 12.7563H1023.53V29.2238H1019.46V12.7563ZM1025.15 23.0295C1025.15 18.9506 1027.69 16.5058 1031.5 16.5058C1035.31 16.5058 1037.84 18.9506 1037.84 23.0295C1037.84 27.1083 1035.39 29.5785 1031.5 29.5785C1027.6 29.5785 1025.15 27.197 1025.15 23.0295ZM1033.81 23.0295C1033.81 20.7874 1032.93 19.47 1031.54 19.47C1030.14 19.47 1029.28 20.7367 1029.28 23.0295C1029.28 25.3222 1030.14 26.5763 1031.54 26.5763C1032.93 26.5763 1033.83 25.3223 1033.83 23.0421L1033.81 23.0295ZM1039.47 30.0725H1043.4C1043.58 30.4953 1043.89 30.8479 1044.29 31.0766C1044.69 31.3054 1045.15 31.3976 1045.61 31.3392C1047.17 31.3392 1047.98 30.5032 1047.98 29.2618V26.9817H1048C1047.66 27.6917 1047.12 28.2834 1046.44 28.6791C1045.76 29.0748 1044.97 29.2558 1044.19 29.1984C1041.21 29.1984 1039.23 26.931 1039.23 23.0295C1039.23 19.1279 1041.12 16.6958 1044.3 16.6958C1045.11 16.6528 1045.91 16.86 1046.59 17.2888C1047.27 17.7176 1047.8 18.3469 1048.11 19.0899H1048V16.7972H1052.03V29.1351C1052.03 32.1119 1049.39 33.974 1045.51 33.974C1041.98 33.9613 1039.72 32.3526 1039.49 30.0852L1039.47 30.0725ZM1048 23.0295C1048 21.0407 1047.08 19.7866 1045.63 19.7866C1044.19 19.7866 1043.3 21.0534 1043.3 23.0295C1043.3 25.0056 1044.18 26.171 1045.63 26.171C1047.09 26.171 1048 25.0942 1048 23.0295ZM1053.64 23.0295C1053.64 18.9506 1056.18 16.5058 1059.99 16.5058C1063.79 16.5058 1066.33 18.9506 1066.33 23.0295C1066.33 27.1083 1063.87 29.5785 1059.99 29.5785C1056.1 29.5785 1053.67 27.197 1053.67 23.0295H1053.64ZM1062.3 23.0295C1062.3 20.7874 1061.41 19.47 1060.03 19.47C1058.64 19.47 1057.77 20.7367 1057.77 23.0295C1057.77 25.3222 1058.63 26.5763 1060.03 26.5763C1061.42 26.5763 1062.32 25.3223 1062.32 23.0421L1062.3 23.0295ZM1067.98 13.795C1067.96 13.3808 1068.07 12.9708 1068.29 12.6177C1068.51 12.2646 1068.82 11.9846 1069.2 11.8137C1069.58 11.6428 1070 11.5888 1070.41 11.6586C1070.82 11.7285 1071.2 11.919 1071.5 12.2057C1071.8 12.4924 1072.01 12.8621 1072.09 13.2673C1072.18 13.6725 1072.15 14.0947 1071.99 14.4795C1071.84 14.8643 1071.57 15.1941 1071.23 15.4266C1070.88 15.659 1070.48 15.7834 1070.06 15.7838C1069.8 15.7905 1069.53 15.7446 1069.29 15.6486C1069.04 15.5526 1068.81 15.4085 1068.62 15.2247C1068.43 15.0408 1068.28 14.8209 1068.17 14.5777C1068.07 14.3344 1068.01 14.0727 1068.01 13.8077L1067.98 13.795ZM1067.98 16.7845H1072.11V29.2744H1068.05L1067.98 16.7845ZM1086.94 23.0295C1086.94 27.0957 1085.11 29.4518 1082 29.4518C1081.21 29.5008 1080.42 29.3048 1079.73 28.8902C1079.05 28.4757 1078.52 27.8626 1078.2 27.1337H1078.12V33.29H1074.05V16.8225H1078.09V19.0519H1078.17C1078.48 18.3087 1079.01 17.6788 1079.69 17.2481C1080.37 16.8174 1081.17 16.6069 1081.98 16.6452C1085.18 16.6198 1087.02 18.9633 1087.02 23.0421L1086.94 23.0295ZM1082.79 23.0295C1082.79 21.0534 1081.86 19.774 1080.43 19.774C1079 19.774 1078.09 21.0407 1078.08 23.0295C1078.07 25.0182 1079 26.2723 1080.43 26.2723C1081.86 26.2723 1082.87 25.0942 1082.87 23.0421L1082.79 23.0295ZM1093.89 16.4931C1097.31 16.4931 1099.43 18.1019 1099.45 20.686H1095.73C1095.73 19.7866 1094.99 19.2293 1093.87 19.2293C1092.75 19.2293 1092.22 19.66 1092.22 20.306C1092.22 20.952 1092.69 21.1547 1093.63 21.3447L1096.24 21.8767C1098.78 22.4088 1099.79 23.4222 1099.79 25.3096C1099.79 27.843 1097.45 29.5658 1093.96 29.5658C1090.47 29.5658 1088.2 27.8937 1088.03 25.3476H1091.98C1092.09 26.2723 1092.83 26.817 1094.02 26.817C1095.21 26.817 1095.77 26.437 1095.77 25.7656C1095.77 25.0942 1095.39 24.9802 1094.41 24.7776L1092.05 24.2835C1089.6 23.7642 1088.32 22.4848 1088.32 20.572C1088.4 18.0892 1090.53 16.5058 1093.97 16.5058L1093.89 16.4931ZM1113.44 29.2618H1109.49V26.9183H1109.41C1109.19 27.7 1108.71 28.3832 1108.05 28.8552C1107.39 29.3273 1106.58 29.56 1105.77 29.5151C1105.16 29.5351 1104.55 29.4253 1103.98 29.1931C1103.41 28.9608 1102.9 28.6113 1102.48 28.1675C1102.05 27.7237 1101.73 27.1957 1101.53 26.618C1101.32 26.0403 1101.24 25.4261 1101.29 24.8156V16.7972H1105.37V23.9415C1105.37 25.4109 1106.14 26.209 1107.41 26.209C1107.71 26.2067 1108 26.1408 1108.27 26.0155C1108.54 25.8902 1108.78 25.7086 1108.97 25.4829C1109.17 25.2571 1109.31 24.9926 1109.39 24.707C1109.47 24.4214 1109.49 24.1215 1109.45 23.8275V16.7972H1113.51L1113.44 29.2618ZM1115.4 16.7845H1119.36V19.1913H1119.45C1119.67 18.4203 1120.14 17.7434 1120.78 17.2667C1121.43 16.7899 1122.21 16.5402 1123.02 16.5565C1123.82 16.4866 1124.63 16.7191 1125.27 17.2088C1125.91 17.6984 1126.35 18.4098 1126.49 19.2039H1126.67C1126.92 18.4056 1127.44 17.7132 1128.12 17.2344C1128.81 16.7556 1129.64 16.5173 1130.48 16.5565C1131.04 16.5353 1131.59 16.6318 1132.11 16.8397C1132.62 17.0475 1133.09 17.362 1133.48 17.7626C1133.87 18.1632 1134.16 18.6408 1134.35 19.1643C1134.54 19.6877 1134.62 20.2451 1134.58 20.8V29.2744H1130.48V21.8387C1130.48 20.572 1129.88 19.8626 1128.73 19.8626C1128.47 19.8584 1128.22 19.9096 1127.98 20.0126C1127.75 20.1155 1127.54 20.2679 1127.37 20.4592C1127.2 20.6505 1127.07 20.8762 1127 21.1209C1126.92 21.3656 1126.9 21.6234 1126.94 21.8767V29.2744H1123.05V21.8007C1123.05 20.534 1122.43 19.8626 1121.32 19.8626C1121.06 19.8606 1120.8 19.9138 1120.56 20.0188C1120.33 20.1237 1120.12 20.2779 1119.95 20.4711C1119.77 20.6643 1119.64 20.8919 1119.57 21.1387C1119.49 21.3855 1119.47 21.6458 1119.5 21.9021V29.2744H1115.43L1115.4 16.7845Z" fill="white"/>
<path d="M1011.4 13.8323C1011.4 11.3111 1010.64 8.84868 1009.21 6.76752C1007.78 4.68635 1005.76 3.08351 1003.41 2.16892C1001.06 1.25434 998.48 1.07066 996.02 1.64194C993.56 2.21323 991.331 3.51284 989.623 5.37055H973.786V38.7362H1007.22V23.1428C1008.54 21.971 1009.59 20.5362 1010.31 18.9319C1011.02 17.3276 1011.4 15.59 1011.4 13.8323ZM1004.96 13.8323C1004.97 15.0404 1004.61 16.2221 1003.94 17.2279C1003.27 18.2336 1002.32 19.0181 1001.2 19.4822C1000.08 19.9463 998.85 20.069 997.663 19.8348C996.476 19.6007 995.385 19.0202 994.528 18.1668C993.671 17.3134 993.087 16.2255 992.85 15.0408C992.613 13.8561 992.734 12.6278 993.196 11.5114C993.659 10.395 994.443 9.44066 995.449 8.7692C996.455 8.09775 997.638 7.73934 998.848 7.73933C1000.47 7.73933 1002.02 8.38086 1003.17 9.52315C1004.32 10.6654 1004.96 12.2152 1004.96 13.8323ZM1000.79 32.3139H980.22V11.7929H986.489C986.367 12.4661 986.304 13.1483 986.298 13.8323C986.302 17.1539 987.625 20.3385 989.978 22.6872C992.331 25.0359 995.521 26.3569 998.848 26.3603C999.499 26.3568 1000.15 26.3018 1000.79 26.1956V32.3139Z" fill="white"/>
</g>
<g clip-path="url(#clip3_299_3797)">
<path d="M26.2796 17.9631C25.8013 18.4461 25.4349 19.029 25.2067 19.6703C24.9785 20.3116 24.8941 20.9955 24.9593 21.6734L24.9366 21.6506C25.0037 22.4484 24.8965 23.2513 24.6225 24.0033C24.3485 24.7553 23.9143 25.4382 23.3501 26.0044C22.786 26.5706 22.1055 27.0064 21.3562 27.2814C20.6069 27.5564 19.8068 27.6639 19.0118 27.5966L19.0345 27.6194C18.0836 27.5306 17.1284 27.7382 16.2994 28.2141C15.4703 28.69 14.8077 29.411 14.4019 30.2786C13.996 31.1463 13.8667 32.1185 14.0316 33.0626C14.1965 34.0067 14.6475 34.8768 15.3231 35.5543C15.9988 36.2317 16.8662 36.6836 17.8071 36.8482C18.748 37.0128 19.7166 36.8821 20.5808 36.4741C21.445 36.066 22.1627 35.4003 22.6362 34.5679C23.1096 33.7354 23.3157 32.7767 23.2263 31.8224L23.2503 31.8452C23.1832 31.0473 23.2904 30.2444 23.5644 29.4924C23.8384 28.7404 24.2727 28.0575 24.8368 27.4914C25.401 26.9252 26.0814 26.4894 26.8307 26.2144C27.58 25.9394 28.3801 25.8318 29.1751 25.8992L29.1511 25.8764C29.9279 25.9465 30.7098 25.8187 31.4243 25.5047C32.1388 25.1908 32.7628 24.701 33.2384 24.0806C33.714 23.4603 34.0259 22.7295 34.1452 21.9559C34.2645 21.1824 34.1872 20.3911 33.9206 19.6555C33.6541 18.9199 33.2068 18.2637 32.6202 17.7478C32.0336 17.2319 31.3268 16.8729 30.5652 16.7041C29.8036 16.5353 29.0118 16.5622 28.2633 16.7823C27.5148 17.0024 26.8338 17.4085 26.2834 17.9631H26.2796Z" fill="white"/>
<path d="M16.9681 24.6325L16.9441 24.6097C17.6198 24.678 18.3022 24.5948 18.9419 24.366C19.5816 24.1373 20.1627 23.7687 20.6431 23.2869C21.1235 22.8052 21.4912 22.2223 21.7196 21.5805C21.948 20.9387 22.0315 20.2539 21.9639 19.5757L21.9879 19.5985C21.9208 18.8007 22.028 17.9977 22.302 17.2458C22.576 16.4938 23.0102 15.8109 23.5744 15.2447C24.1385 14.6785 24.819 14.2427 25.5683 13.9677C26.3176 13.6927 27.1177 13.5851 27.9127 13.6525L27.8887 13.6297C28.8397 13.7193 29.7952 13.5123 30.6247 13.037C31.4542 12.5616 32.1174 11.841 32.5239 10.9735C32.9303 10.106 33.0602 9.1337 32.8959 8.18934C32.7315 7.24498 32.2808 6.37451 31.6054 5.69663C30.9299 5.01876 30.0626 4.5665 29.1216 4.40153C28.1806 4.23657 27.2118 4.36693 26.3474 4.77484C25.4829 5.18275 24.7649 5.84835 24.2913 6.68085C23.8176 7.51335 23.6114 8.47222 23.7007 9.42668L23.678 9.40261C23.7453 10.2005 23.6383 11.0036 23.3643 11.7556C23.0904 12.5077 22.6561 13.1907 22.0919 13.7569C21.5278 14.3232 20.8472 14.759 20.0978 15.0339C19.3484 15.3088 18.5482 15.4162 17.7532 15.3486L17.7759 15.3727C17.1002 15.3044 16.4178 15.3876 15.7781 15.6164C15.1384 15.8451 14.5573 16.2137 14.0769 16.6955C13.5966 17.1772 13.2288 17.7601 13.0004 18.4019C12.772 19.0438 12.6885 19.7285 12.7561 20.4067L12.7334 20.3839C12.8003 21.1817 12.6929 21.9845 12.4188 22.7364C12.1447 23.4883 11.7105 24.1711 11.1464 24.7372C10.5823 25.3034 9.90192 25.7392 9.15273 26.0142C8.40353 26.2893 7.60356 26.3971 6.80861 26.3299L6.83133 26.3527C5.88028 26.2631 4.92484 26.4701 4.09531 26.9454C3.26578 27.4208 2.60256 28.1414 2.19611 29.0089C1.78966 29.8765 1.65976 30.8487 1.82414 31.7931C1.98851 32.7374 2.43916 33.6079 3.11461 34.2858C3.79006 34.9637 4.65743 35.4159 5.59841 35.5809C6.53939 35.7458 7.50818 35.6155 8.37262 35.2076C9.23706 34.7997 9.95508 34.1341 10.4287 33.3016C10.9024 32.4691 11.1086 31.5102 11.0193 30.5557L11.0433 30.5785C10.9762 29.7807 11.0834 28.9777 11.3574 28.2258C11.6314 27.4738 12.0657 26.7909 12.6298 26.2247C13.194 25.6585 13.8744 25.2227 14.6237 24.9477C15.373 24.6727 16.1731 24.5652 16.9681 24.6325Z" fill="white"/>
<path d="M8.50861 22.0902C8.98702 21.6073 9.35329 21.0244 9.5813 20.383C9.8093 19.7416 9.89341 19.0577 9.82762 18.3799L9.8516 18.4027C9.78444 17.6046 9.89168 16.8015 10.1658 16.0493C10.44 15.2971 10.8745 14.6141 11.4389 14.0478C12.0033 13.4816 12.6841 13.0459 13.4337 12.7711C14.1834 12.4962 14.9837 12.389 15.7789 12.4567L15.7549 12.4339C16.7056 12.5233 17.6607 12.3162 18.4898 11.8409C19.319 11.3655 19.9819 10.6451 20.3881 9.77785C20.7943 8.91058 20.924 7.93868 20.7597 6.99467C20.5953 6.05067 20.1448 5.18053 19.4696 4.5029C18.7944 3.82528 17.9274 3.37316 16.9867 3.2082C16.0461 3.04324 15.0777 3.17348 14.2135 3.58114C13.3493 3.9888 12.6315 4.65405 12.1578 5.48617C11.6842 6.31828 11.4779 7.27676 11.5669 8.23089L11.5442 8.20809C11.6113 9.00594 11.5041 9.80888 11.2301 10.5609C10.9561 11.3128 10.5219 11.9958 9.95771 12.5619C9.39356 13.1281 8.71309 13.5639 7.96379 13.8389C7.2145 14.1139 6.41443 14.2215 5.61943 14.1541L5.64215 14.1769C4.86535 14.107 4.08354 14.235 3.36916 14.5491C2.65477 14.8631 2.03093 15.353 1.55545 15.9735C1.07996 16.5939 0.768214 17.3247 0.649093 18.0982C0.529972 18.8718 0.607331 19.663 0.874003 20.3985C1.14067 21.134 1.58803 21.7901 2.17462 22.3059C2.7612 22.8218 3.46803 23.1807 4.22962 23.3494C4.9912 23.5181 5.78289 23.4911 6.53133 23.271C7.27977 23.0509 7.96074 22.6447 8.51114 22.0902H8.50861Z" fill="white"/>
<path d="M47.6074 9.45605H51.3562V27.7641H47.6074V9.45605Z" fill="white"/>
<path d="M53.4797 21.4954C53.4744 20.1797 53.8584 18.8921 54.5829 17.7956C55.3074 16.6991 56.3399 15.843 57.5496 15.3359C58.7593 14.8287 60.0917 14.6933 61.3782 14.9468C62.6646 15.2002 63.8472 15.8311 64.776 16.7596C65.7049 17.688 66.3383 18.8723 66.596 20.1623C66.8537 21.4523 66.7241 22.7901 66.2236 24.0061C65.7231 25.2222 64.8743 26.2618 63.7846 26.9933C62.6949 27.7248 61.4134 28.1153 60.1025 28.1153C59.2322 28.1253 58.3687 27.9611 57.5625 27.6322C56.7562 27.3034 56.0234 26.8166 55.4067 26.2002C54.7901 25.5839 54.3021 24.8504 53.9712 24.0425C53.6403 23.2347 53.4732 22.3688 53.4797 21.4954ZM62.9765 21.4954C62.9609 20.9283 62.779 20.3784 62.4536 19.9144C62.1283 19.4505 61.6739 19.0931 61.1473 18.8869C60.6206 18.6807 60.0451 18.6349 59.4926 18.7552C58.9402 18.8755 58.4353 19.1566 58.0412 19.5632C57.647 19.9699 57.3811 20.4842 57.2765 21.0417C57.172 21.5993 57.2336 22.1754 57.4536 22.698C57.6735 23.2206 58.0421 23.6666 58.5133 23.9801C58.9844 24.2936 59.5372 24.4609 60.1025 24.4608C60.4896 24.4712 60.8747 24.401 61.2334 24.2545C61.5922 24.1081 61.9168 23.8886 62.1868 23.61C62.4569 23.3314 62.6664 22.9997 62.8024 22.6357C62.9383 22.2718 62.9976 21.8835 62.9765 21.4954Z" fill="white"/>
<path d="M81.6658 15.2247V27.132C81.6658 31.3452 78.3917 33.1262 75.0683 33.1262C73.8981 33.2141 72.7265 32.9769 71.6818 32.4406C70.6372 31.9043 69.7598 31.0897 69.146 30.086L72.3444 28.2303C72.6024 28.7534 73.0135 29.1851 73.5226 29.4673C74.0317 29.7496 74.6146 29.8691 75.1932 29.8099C75.5631 29.8613 75.9397 29.8286 76.2952 29.7142C76.6507 29.5999 76.9761 29.4067 77.2472 29.1491C77.5183 28.8915 77.7283 28.576 77.8615 28.226C77.9947 27.876 78.0478 27.5003 78.0168 27.1269V25.9806C77.5778 26.5196 77.0191 26.9479 76.3854 27.231C75.7517 27.5141 75.0606 27.6442 74.3678 27.6108C72.7191 27.5587 71.1553 26.8647 70.0075 25.6758C68.8596 24.487 68.2178 22.8965 68.2178 21.2411C68.2178 19.5857 68.8596 17.9952 70.0075 16.8063C71.1553 15.6175 72.7191 14.9235 74.3678 14.8713C75.0606 14.838 75.7517 14.9681 76.3854 15.2512C77.0191 15.5343 77.5778 15.9626 78.0168 16.5016V15.2222L81.6658 15.2247ZM78.0181 21.243C78.0433 20.6367 77.8871 20.0367 77.5696 19.5202C77.2521 19.0037 76.7879 18.5944 76.2367 18.3449C75.6855 18.0955 75.0725 18.0173 74.4766 18.1204C73.8808 18.2235 73.3293 18.5032 72.8931 18.9235C72.457 19.3439 72.1562 19.8856 72.0294 20.4789C71.9027 21.0723 71.9557 21.6901 72.1818 22.253C72.4079 22.8158 72.7966 23.2978 73.298 23.6371C73.7994 23.9763 74.3904 24.1572 74.9951 24.1565C75.3889 24.184 75.7842 24.1285 76.1554 23.9935C76.5266 23.8585 76.8655 23.6469 77.1503 23.3725C77.4351 23.098 77.6594 22.7667 77.8089 22.3999C77.9583 22.0332 78.0296 21.6391 78.0181 21.243Z" fill="white"/>
<path d="M83.7892 21.4954C83.784 20.1797 84.1679 18.8921 84.8925 17.7956C85.617 16.6991 86.6495 15.843 87.8592 15.3359C89.0689 14.8287 90.4013 14.6933 91.6877 14.9468C92.9742 15.2002 94.1567 15.8311 95.0856 16.7596C96.0145 17.688 96.6479 18.8723 96.9056 20.1623C97.1633 21.4523 97.0337 22.7901 96.5332 24.0061C96.0327 25.2222 95.1839 26.2618 94.0942 26.9933C93.0045 27.7248 91.723 28.1153 90.412 28.1153C89.5418 28.1253 88.6783 27.9611 87.8721 27.6322C87.0658 27.3034 86.3329 26.8166 85.7163 26.2002C85.0997 25.5839 84.6117 24.8504 84.2808 24.0425C83.9499 23.2347 83.7828 22.3688 83.7892 21.4954ZM93.2861 21.4954C93.2704 20.9283 93.0886 20.3784 92.7632 19.9144C92.4379 19.4505 91.9835 19.0931 91.4568 18.8869C90.9302 18.6807 90.3546 18.6349 89.8022 18.7552C89.2497 18.8755 88.7449 19.1566 88.3507 19.5632C87.9566 19.9699 87.6906 20.4842 87.5861 21.0417C87.4816 21.5993 87.5432 22.1754 87.7631 22.698C87.9831 23.2206 88.3517 23.6666 88.8228 23.9801C89.294 24.2936 89.8467 24.4609 90.412 24.4608C90.7992 24.4712 91.1843 24.401 91.543 24.2545C91.9018 24.1081 92.2264 23.8886 92.4964 23.61C92.7664 23.3314 92.976 22.9997 93.1119 22.6357C93.2478 22.2718 93.3071 21.8835 93.2861 21.4954Z" fill="white"/>
<path d="M98.7832 11.8638C98.7832 11.4173 98.9151 10.9809 99.1623 10.6097C99.4094 10.2385 99.7607 9.94912 100.172 9.77827C100.583 9.60742 101.035 9.56272 101.471 9.64982C101.908 9.73692 102.308 9.95191 102.623 10.2676C102.937 10.5833 103.152 10.9855 103.238 11.4234C103.325 11.8613 103.281 12.3151 103.11 12.7276C102.94 13.1401 102.652 13.4926 102.282 13.7406C101.912 13.9887 101.477 14.1211 101.032 14.1211C100.438 14.1151 99.8691 13.8754 99.4485 13.4534C99.028 13.0313 98.7891 12.4606 98.7832 11.8638ZM99.1619 15.2244H102.912V27.765H99.1568L99.1619 15.2244Z" fill="white"/>
<path d="M119.098 21.4954C119.141 22.3242 119.021 23.1534 118.744 23.9353C118.467 24.7173 118.038 25.4366 117.483 26.0518C116.928 26.667 116.257 27.166 115.51 27.5201C114.762 27.8743 113.951 28.0765 113.125 28.1153C112.431 28.1533 111.736 28.0358 111.092 27.7711C110.449 27.5064 109.871 27.1013 109.403 26.5851V32.7807H105.654V15.2251H109.403V16.4031C109.872 15.8873 110.449 15.4825 111.093 15.2181C111.736 14.9536 112.431 14.8362 113.125 14.8742C113.951 14.9128 114.762 15.115 115.51 15.4691C116.258 15.8233 116.929 16.3224 117.484 16.9378C118.039 17.5532 118.468 18.2727 118.745 19.0548C119.022 19.837 119.142 20.6664 119.098 21.4954ZM115.349 21.4954C115.335 20.9085 115.148 20.3389 114.812 19.858C114.477 19.3772 114.007 19.0063 113.463 18.7919C112.918 18.5774 112.322 18.529 111.751 18.6525C111.179 18.7761 110.656 19.0662 110.247 19.4865C109.839 19.9068 109.563 20.4387 109.454 21.0156C109.346 21.5925 109.409 22.1887 109.636 22.7297C109.864 23.2706 110.245 23.7323 110.732 24.0569C111.22 24.3815 111.792 24.5546 112.377 24.5545C112.778 24.5725 113.179 24.505 113.553 24.3566C113.927 24.2081 114.265 23.9821 114.546 23.6932C114.827 23.4044 115.043 23.0593 115.182 22.6805C115.32 22.3017 115.377 21.8979 115.349 21.4954Z" fill="white"/>
<path d="M130.665 24.0019C130.665 26.8862 128.167 28.115 125.469 28.115C124.379 28.2141 123.284 27.9827 122.326 27.4506C121.368 26.9186 120.591 26.1104 120.096 25.1305L123.343 23.2748C123.475 23.7277 123.757 24.1217 124.143 24.391C124.529 24.6602 124.995 24.7885 125.464 24.7543C126.363 24.7543 126.813 24.4782 126.813 23.9778C126.813 22.5971 120.665 23.3255 120.665 18.9869C120.665 16.252 122.965 14.8738 125.564 14.8738C126.541 14.8428 127.508 15.0754 128.365 15.5473C129.222 16.0192 129.937 16.7131 130.436 17.5568L127.237 19.2871C127.097 18.9586 126.863 18.6789 126.566 18.4827C126.268 18.2865 125.92 18.1825 125.564 18.1838C124.914 18.1838 124.513 18.4371 124.513 18.8856C124.518 20.3157 130.665 19.3619 130.665 24.0019Z" fill="white"/>
<path d="M144.36 15.2246V27.7652H140.611V26.5859C140.179 27.1063 139.63 27.5163 139.009 27.7823C138.388 28.0483 137.713 28.1627 137.039 28.1161C134.515 28.1161 132.369 26.311 132.369 22.9225V15.2246H136.118V22.3715C136.087 22.6702 136.12 22.9721 136.217 23.2563C136.314 23.5405 136.471 23.8002 136.678 24.0172C136.885 24.2342 137.136 24.4034 137.415 24.5129C137.694 24.6225 137.993 24.6698 138.291 24.6516C139.666 24.6516 140.615 23.8498 140.615 22.0688V15.2284L144.36 15.2246Z" fill="white"/>
<path d="M165.855 20.0651V27.7643H162.106V20.3907C162.106 19.1366 161.506 18.3348 160.307 18.3348C159.058 18.3348 158.357 19.2126 158.357 20.6922V27.7643H154.61V20.3907C154.61 19.1366 154.01 18.3348 152.81 18.3348C151.56 18.3348 150.861 19.2126 150.861 20.6922V27.7643H147.112V15.2237H150.861V16.3764C151.25 15.865 151.76 15.4595 152.345 15.1968C152.93 14.9342 153.571 14.8228 154.21 14.8728C154.851 14.8413 155.49 14.9772 156.063 15.2671C156.637 15.557 157.126 15.9912 157.483 16.5272C157.898 15.9664 158.448 15.5205 159.082 15.2312C159.716 14.9419 160.412 14.8186 161.106 14.8728C163.975 14.8741 165.855 16.93 165.855 20.0651Z" fill="white"/>
<path d="M169.026 15.1472C170.562 15.1472 171.808 13.8973 171.808 12.3553C171.808 10.8134 170.562 9.56348 169.026 9.56348C167.49 9.56348 166.244 10.8134 166.244 12.3553C166.244 13.8973 167.49 15.1472 169.026 15.1472Z" fill="white"/>
</g>
<g clip-path="url(#clip4_299_3797)">
<path d="M296.197 9.51367H300.004V27.9922H296.197V9.51367Z" fill="white"/>
<path d="M302.135 21.6618C302.135 20.3323 302.527 19.0328 303.261 17.9279C303.995 16.8231 305.037 15.9626 306.257 15.4556C307.476 14.9486 308.818 14.8179 310.111 15.0801C311.405 15.3423 312.592 15.9855 313.522 16.9283C314.452 17.871 315.083 19.0709 315.336 20.3757C315.589 21.6806 315.452 23.0316 314.941 24.2577C314.431 25.4838 313.572 26.5296 312.471 27.2627C311.37 27.9958 310.079 28.3831 308.759 28.3755C307.884 28.3824 307.017 28.2131 306.208 27.8777C305.398 27.5423 304.664 27.0474 304.047 26.4221C303.43 25.7968 302.943 25.0536 302.615 24.2362C302.286 23.4188 302.123 22.5435 302.135 21.6618ZM311.678 21.6618C311.663 21.0887 311.481 20.5327 311.154 20.0634C310.827 19.5941 310.37 19.2324 309.84 19.0234C309.31 18.8145 308.731 18.7676 308.175 18.8886C307.619 19.0096 307.111 19.2932 306.714 19.7038C306.316 20.1145 306.048 20.634 305.943 21.1974C305.837 21.7607 305.899 22.343 306.12 22.8713C306.341 23.3996 306.712 23.8505 307.186 24.1676C307.66 24.4848 308.216 24.654 308.785 24.6542C309.172 24.6618 309.557 24.5888 309.915 24.4398C310.273 24.2907 310.597 24.0689 310.866 23.788C311.135 23.5072 311.344 23.1734 311.479 22.8076C311.615 22.4417 311.674 22.0517 311.653 21.6618H311.678Z" fill="white"/>
<path d="M330.446 15.3323V27.3657C330.446 31.6113 327.147 33.4144 323.809 33.4144C322.632 33.5118 321.452 33.2761 320.4 32.7339C319.349 32.1916 318.468 31.3644 317.858 30.3453L321.068 28.4783C321.329 29.0069 321.742 29.443 322.255 29.7286C322.767 30.0142 323.354 30.1356 323.936 30.0768C324.307 30.1228 324.684 30.0857 325.039 29.968C325.395 29.8503 325.72 29.655 325.991 29.3959C326.263 29.1369 326.474 28.8206 326.61 28.4696C326.746 28.1186 326.804 27.7417 326.779 27.3657V26.202C326.336 26.7433 325.774 27.1731 325.137 27.4572C324.501 27.7413 323.807 27.872 323.112 27.8389C321.429 27.8389 319.815 27.1652 318.625 25.9661C317.435 24.767 316.767 23.1407 316.767 21.4449C316.767 19.7491 317.435 18.1228 318.625 16.9237C319.815 15.7246 321.429 15.0509 323.112 15.0509C323.807 15.0178 324.501 15.1485 325.137 15.4326C325.774 15.7167 326.336 16.1465 326.779 16.6878V15.409L330.446 15.3323ZM326.779 21.4065C326.804 20.7947 326.647 20.1893 326.328 19.668C326.009 19.1468 325.543 18.7336 324.989 18.4815C324.436 18.2295 323.82 18.1502 323.221 18.2538C322.622 18.3574 322.067 18.6391 321.629 19.0628C321.19 19.4865 320.887 20.0327 320.759 20.6313C320.631 21.2299 320.683 21.8534 320.91 22.4217C321.136 22.99 321.526 23.4771 322.029 23.8203C322.532 24.1635 323.126 24.3472 323.733 24.3478C324.13 24.3765 324.528 24.3212 324.902 24.1853C325.276 24.0494 325.617 23.836 325.904 23.5588C326.191 23.2816 326.417 22.9469 326.568 22.5761C326.719 22.2054 326.791 21.807 326.779 21.4065Z" fill="white"/>
<path d="M332.591 21.6619C332.591 20.3335 332.982 19.035 333.715 17.9307C334.447 16.8263 335.489 15.9658 336.707 15.4581C337.925 14.9503 339.265 14.8181 340.558 15.0782C341.85 15.3383 343.037 15.979 343.969 16.9192C344.9 17.8594 345.533 19.0568 345.789 20.36C346.045 21.6632 345.911 23.0134 345.405 24.24C344.898 25.4665 344.043 26.5142 342.945 27.2503C341.848 27.9865 340.559 28.3781 339.241 28.3756C338.364 28.3841 337.494 28.2162 336.683 27.8817C335.872 27.5472 335.135 27.0528 334.515 26.4275C333.896 25.8022 333.407 25.0586 333.076 24.2402C332.746 23.4219 332.581 22.5453 332.591 21.6619ZM342.134 21.6619C342.119 21.0882 341.936 20.5317 341.609 20.0622C341.281 19.5927 340.824 19.2309 340.293 19.0224C339.763 18.8138 339.183 18.7677 338.626 18.8897C338.07 19.0118 337.562 19.2966 337.165 19.7085C336.768 20.1204 336.501 20.6411 336.397 21.2053C336.293 21.7695 336.356 22.3522 336.579 22.8803C336.802 23.4083 337.175 23.8584 337.651 24.1739C338.126 24.4895 338.684 24.6566 339.253 24.6543C339.641 24.6619 340.025 24.5889 340.384 24.4399C340.742 24.2908 341.065 24.069 341.335 23.7881C341.604 23.5073 341.813 23.1735 341.948 22.8077C342.083 22.4418 342.142 22.0518 342.121 21.6619H342.134Z" fill="white"/>
<path d="M347.653 11.9432C347.653 11.493 347.786 11.053 348.034 10.6786C348.282 10.3043 348.635 10.0125 349.048 9.84026C349.46 9.66798 349.915 9.6229 350.353 9.71073C350.791 9.79856 351.193 10.0154 351.509 10.3337C351.825 10.652 352.04 11.0576 352.128 11.4992C352.215 11.9407 352.17 12.3984 351.999 12.8143C351.828 13.2303 351.538 13.5858 351.167 13.8359C350.796 14.086 350.359 14.2195 349.912 14.2195C349.315 14.2129 348.744 13.9709 348.322 13.5454C347.9 13.12 347.66 12.5449 347.653 11.9432ZM348.021 15.3321H351.828V27.9921H348.021V15.3321Z" fill="white"/>
<path d="M368.123 21.6615C368.166 22.5035 368.043 23.3457 367.761 24.1395C367.48 24.9334 367.045 25.6634 366.482 26.2873C365.92 26.9113 365.24 27.417 364.483 27.7753C363.726 28.1337 362.906 28.3375 362.07 28.3752C361.361 28.4228 360.65 28.3083 359.991 28.0404C359.332 27.7724 358.741 27.358 358.263 26.8279V33.0812H354.456V15.3315H358.263V16.5208C358.742 15.9923 359.333 15.5797 359.992 15.3139C360.651 15.0482 361.362 14.9362 362.07 14.9862C362.902 15.024 363.719 15.2266 364.474 15.5826C365.229 15.9385 365.906 16.4407 366.468 17.0606C367.03 17.6804 367.466 18.4058 367.75 19.1952C368.034 19.9847 368.16 20.8227 368.123 21.6615ZM364.316 21.6615C364.301 21.0676 364.112 20.4913 363.774 20.005C363.435 19.5186 362.962 19.1438 362.413 18.9275C361.863 18.7112 361.263 18.663 360.687 18.789C360.111 18.915 359.584 19.2096 359.174 19.6358C358.763 20.0621 358.486 20.601 358.378 21.185C358.27 21.7691 358.335 22.3723 358.566 22.9191C358.797 23.4658 359.182 23.9318 359.675 24.2587C360.167 24.5855 360.744 24.7585 361.334 24.7562C361.738 24.7735 362.141 24.7045 362.516 24.5539C362.892 24.4033 363.231 24.1743 363.513 23.8821C363.795 23.5899 364.012 23.241 364.15 22.8583C364.288 22.4757 364.345 22.0678 364.316 21.6615Z" fill="white"/>
<path d="M379.708 24.1943C379.708 27.11 377.17 28.3504 374.48 28.3504C373.383 28.4499 372.281 28.2155 371.317 27.6775C370.354 27.1395 369.572 26.3227 369.074 25.3324L372.348 23.4654C372.478 23.9217 372.759 24.3193 373.145 24.5916C373.531 24.864 373.997 24.9946 374.467 24.9616C375.368 24.9616 375.825 24.6803 375.825 24.1687C375.825 22.7749 369.645 23.5166 369.645 19.1303C369.645 16.3681 371.955 14.987 374.569 14.987C375.563 14.9422 376.55 15.1693 377.426 15.6444C378.301 16.1195 379.033 16.8247 379.543 17.6853L376.269 19.4244C376.125 19.0945 375.888 18.8139 375.589 18.6164C375.289 18.419 374.939 18.3132 374.582 18.3119C373.922 18.3119 373.528 18.5676 373.528 19.0152C373.528 20.473 379.708 19.5139 379.708 24.1943Z" fill="white"/>
<path d="M393.502 15.332V27.9921H389.695V26.8028C389.262 27.3292 388.713 27.7459 388.091 28.0191C387.47 28.2923 386.793 28.4145 386.116 28.3757C383.578 28.3757 381.408 26.5471 381.408 23.1327V15.332H385.215V22.5572C385.185 22.8593 385.221 23.1643 385.319 23.4512C385.418 23.7381 385.577 24 385.785 24.2188C385.994 24.4377 386.248 24.6083 386.528 24.7188C386.809 24.8294 387.11 24.8772 387.41 24.859C388.781 24.859 389.745 24.0406 389.745 22.3015V15.332H393.502Z" fill="white"/>
<path d="M415.074 20.2169V27.992H411.267V20.5494C411.267 19.2706 410.67 18.4778 409.465 18.4778C408.259 18.4778 407.498 19.3601 407.498 20.8563V27.992H403.691V20.5494C403.691 19.2706 403.095 18.4778 401.889 18.4778C400.684 18.4778 399.922 19.3601 399.922 20.8563V27.992H396.115V15.3319H399.922V16.4956C400.316 15.9815 400.831 15.5744 401.421 15.3109C402.01 15.0475 402.655 14.936 403.298 14.9866C403.941 14.9528 404.583 15.0883 405.159 15.3797C405.735 15.6712 406.227 16.1086 406.584 16.6491C407.002 16.0844 407.556 15.6358 408.193 15.345C408.83 15.0543 409.529 14.931 410.226 14.9866C413.196 14.9866 415.074 17.0583 415.074 20.2169Z" fill="white"/>
<path d="M273.52 6.18878V0.753906H256.516V38.0947H273.52V32.6598C270.037 32.6598 266.696 31.2654 264.233 28.7832C261.77 26.3011 260.386 22.9346 260.386 19.4243C260.386 15.914 261.77 12.5475 264.233 10.0654C266.696 7.58323 270.037 6.18878 273.52 6.18878Z" fill="white"/>
<path d="M273.521 6.18848V32.6595C277.004 32.6595 280.345 31.2651 282.808 28.7829C285.271 26.3008 286.654 22.9343 286.654 19.424C286.654 15.9137 285.271 12.5472 282.808 10.0651C280.345 7.58293 277.004 6.18848 273.521 6.18848Z" fill="white"/>
<path d="M418.272 15.2556C419.814 15.2556 421.064 13.996 421.064 12.4423C421.064 10.8885 419.814 9.62891 418.272 9.62891C416.73 9.62891 415.48 10.8885 415.48 12.4423C415.48 13.996 416.73 15.2556 418.272 15.2556Z" fill="white"/>
</g>
</g>
<defs>
<clipPath id="clip0_299_3797">
<rect width="152" height="36" fill="white" transform="translate(506 2)"/>
</clipPath>
<clipPath id="clip1_299_3797">
<rect width="149" height="31" fill="white" transform="translate(741 4)"/>
</clipPath>
<clipPath id="clip2_299_3797">
<rect width="162" height="38" fill="white" transform="translate(973 1)"/>
</clipPath>
<clipPath id="clip3_299_3797">
<rect width="172" height="34" fill="white" transform="translate(0 3)"/>
</clipPath>
<clipPath id="clip4_299_3797">
<rect width="166" height="39" fill="white" transform="translate(256)"/>
</clipPath>
</defs>
</svg>
