<svg width="130" height="28" viewBox="0 0 130 28" fill="none" xmlns="http://www.w3.org/2000/svg">
<g clip-path="url(#clip0_1107_1673)">
<path d="M129.77 20.9443V24.1614H127.071C124.191 24.0709 122.652 22.5158 122.652 19.5949V12.2475H120.768V9.42532H122.652V6.26582H126.635V9.39241H129.679V12.2063H126.635V19.2C126.635 20.1462 126.824 20.9032 128.28 20.9032L129.77 20.9443Z" fill="#111111"/>
<path d="M104.897 16.8222V16.6082C104.854 15.6619 104.998 14.7164 105.321 13.8259C105.644 12.9353 106.14 12.1173 106.779 11.4187C107.419 10.7201 108.19 10.1546 109.049 9.75464C109.908 9.35468 110.837 9.12813 111.784 9.08797C111.973 9.08797 112.17 9.08797 112.36 9.08797C116.12 9.08797 119.419 11.2766 119.419 16.493V17.6038H108.97C109.077 20.0063 110.377 21.3639 112.565 21.3639C114.449 21.3639 115.33 20.5411 115.585 19.3399H119.345C118.884 22.4747 116.383 24.219 112.425 24.219C108.081 24.1861 104.897 21.438 104.897 16.8222ZM115.503 15.0861C115.363 12.8975 114.26 11.8443 112.343 11.8443C110.426 11.8443 109.323 13.0291 109.052 15.0861H115.503Z" fill="#111111"/>
<path d="M88.6386 16.8222V16.6082C88.5955 15.6632 88.739 14.719 89.061 13.8295C89.383 12.94 89.8772 12.1227 90.5152 11.4243C91.1533 10.7259 91.9227 10.1601 92.7795 9.75921C93.6364 9.35833 94.5638 9.13024 95.5088 9.08797C95.6981 9.08797 95.8955 9.08797 96.0848 9.08797C99.8449 9.08797 103.153 11.2766 103.153 16.493V17.6038H92.7114C92.8183 20.0063 94.1183 21.3639 96.3069 21.3639C98.1911 21.3639 99.0715 20.5411 99.3266 19.3399H103.087C102.618 22.4747 100.116 24.219 96.1588 24.219C91.8228 24.1861 88.6386 21.438 88.6386 16.8222ZM99.2443 15.0861C99.1044 12.8975 98.0019 11.8443 96.0848 11.8443C94.1677 11.8443 93.0981 13.062 92.7936 15.0778L99.2443 15.0861Z" fill="#111111"/>
<path d="M65.8228 9.3924H70.0354L72.6107 19.1506L75.4329 9.3924H78.724L81.2746 19.1506L83.9898 9.3924H87.8487L83.274 23.8899H79.3247L76.8563 14.7899L74.2152 23.8899H70.2164L65.8228 9.3924Z" fill="#111111"/>
<path d="M52.436 19.3316H56.1962C56.369 20.6399 57.0189 21.3886 58.7468 21.3886C60.2936 21.3886 61.0095 20.8044 61.0095 19.8089C61.0095 18.8133 60.1867 18.3937 58.0803 18.0975C54.2215 17.5133 52.7322 16.4025 52.7322 13.5722C52.7322 10.5525 55.4968 9.05506 58.4917 9.05506C61.7088 9.05506 64.136 10.2234 64.4816 13.5557H60.7708C60.7472 13.2981 60.6727 13.0477 60.5517 12.8191C60.4307 12.5904 60.2656 12.388 60.0659 12.2235C59.8662 12.059 59.6359 11.9357 59.3883 11.8608C59.1408 11.7858 58.8808 11.7606 58.6234 11.7867H58.5C57.2 11.7867 56.443 12.3956 56.443 13.2842C56.443 14.1728 57.1424 14.5595 59.2652 14.8639C62.8689 15.407 64.8848 16.3203 64.8848 19.4222C64.8848 22.5241 62.6057 24.1861 58.7879 24.1861C54.9702 24.1861 52.543 22.4665 52.436 19.3316Z" fill="#111111"/>
<path d="M36.4576 9.39241H40.4399V11.688C40.8888 10.8454 41.5701 10.1494 42.4029 9.68266C43.2357 9.21593 44.185 8.9981 45.138 9.05507C47.9602 9.05507 50.0089 10.7747 50.0089 14.6994V23.9228H46.076V15.2753C46.076 13.3089 45.3108 12.3709 43.5336 12.3709C43.158 12.3382 42.7796 12.38 42.4201 12.4939C42.0607 12.6078 41.7273 12.7916 41.4391 13.0347C41.1509 13.2778 40.9135 13.5755 40.7406 13.9106C40.5678 14.2456 40.4628 14.6116 40.4317 14.9873C40.4111 15.1623 40.4111 15.339 40.4317 15.5139V23.8899H36.4576V9.39241Z" fill="#111111"/>
<path d="M28.7728 5.74747C28.7584 5.35042 28.8621 4.95802 29.0708 4.61994C29.2795 4.28186 29.5838 4.01332 29.9453 3.8483C30.3067 3.68328 30.7089 3.62921 31.1011 3.69294C31.4933 3.75667 31.8577 3.93533 32.1483 4.2063C32.4388 4.47727 32.6425 4.82836 32.7334 5.21513C32.8243 5.6019 32.7984 6.00695 32.659 6.379C32.5196 6.75104 32.2729 7.07336 31.9502 7.30514C31.6275 7.53691 31.2433 7.66773 30.8462 7.68101H30.7722C30.5257 7.69661 30.2786 7.6634 30.045 7.58328C29.8114 7.50316 29.596 7.3777 29.411 7.21411C29.226 7.05052 29.0751 6.85202 28.967 6.62999C28.8589 6.40796 28.7957 6.16677 28.781 5.92026C28.7742 5.86293 28.7715 5.80519 28.7728 5.74747ZM28.7728 9.39241H32.7962V23.8899H28.7893L28.7728 9.39241Z" fill="#111111"/>
<path d="M13.6089 4.07722H26.3291V7.59051H18.1013V12.8316H24.6177V16.2133H18.0931V23.8899H13.6089V4.07722Z" fill="#111111"/>
<path d="M5.93228 10.5608C5.93228 11.8032 5.93228 13.3171 4.22089 13.9342C5.97342 14.5348 5.93228 15.8101 5.93228 17.143V22.0797C5.93228 23.0177 6.31076 23.5854 6.98544 23.7253C7.13369 23.7753 7.28988 23.7976 7.4462 23.7911H9.09177V27.0823H6.37658C3.48038 27.0823 1.88418 25.4367 1.88418 22.3842V16.5424C1.86364 16.2425 1.7314 15.9612 1.51357 15.754C1.29574 15.5469 1.00816 15.4289 0.707595 15.4234H0V12.5354H0.707595C1.01415 12.5314 1.30739 12.4095 1.52646 12.195C1.74553 11.9805 1.87363 11.6899 1.88418 11.3835V5.45949C1.88418 2.45633 3.44747 0.835443 6.37658 0.835443H9.11646V4.07722H7.47089C7.31437 4.07767 7.1589 4.10266 7.01013 4.15127C6.33544 4.32405 5.95696 4.88354 5.95696 5.79684L5.93228 10.5608Z" fill="#111111"/>
</g>
<defs>
<clipPath id="clip0_1107_1673">
<rect width="130" height="26.3291" fill="white" transform="translate(0 0.835443)"/>
</clipPath>
</defs>
</svg>
